<svg xmlns="http://www.w3.org/2000/svg" version="1.1" xmlns:xlink="http://www.w3.org/1999/xlink" xmlns:svgjs="http://svgjs.dev/svgjs" width="1000" height="1000" viewBox="0 0 1000 1000"><rect width="1000" height="1000" fill="#ffffff"></rect><g transform="matrix(0.7,0,0,0.7,149.57575757575756,282.1265587044535)"><svg viewBox="0 0 396 247" data-background-color="#ffffff" preserveAspectRatio="xMidYMid meet" height="623" width="1000" xmlns="http://www.w3.org/2000/svg" xmlns:xlink="http://www.w3.org/1999/xlink"><g id="tight-bounds" transform="matrix(1,0,0,1,0.2400000000000091,-0.09999999999999432)"><svg viewBox="0 0 395.52 247.2" height="247.2" width="395.52"><g><svg></svg></g><g><svg viewBox="0 0 395.52 247.2" height="247.2" width="395.52"><g transform="matrix(1,0,0,1,39.55199999999999,94.29720202178567)"><svg viewBox="0 0 316.416 58.60559595642866" height="58.60559595642866" width="316.416"><g><svg viewBox="0 0 316.416 58.60559595642866" height="58.60559595642866" width="316.416"><g><svg viewBox="0 0 316.416 58.60559595642866" height="58.60559595642866" width="316.416"><g><svg viewBox="0 0 316.416 58.60559595642866" height="58.60559595642866" width="316.416" id="textblock"><g><svg viewBox="0 0 316.416 31.609058073363045" height="31.609058073363045" width="316.416"><g transform="matrix(1,0,0,1,0,0)"><svg width="316.416" viewBox="1.3899999856948853 -35.54999923706055 356.05999755859375 35.56999969482422" height="31.609058073363045" data-palette-color="#729343"><path d="M14.11 0L12.62 0 3.86-34.23 1.39-34.23 1.39-35.55 9.2-35.55 9.2-34.23 5.3-34.23 11.87-8.06 13.4-2.47 13.55-2.47 15.09-8.06 23.97-35.55 25.44-35.55 34.28-8.06 35.79-2.47 35.94-2.47 37.52-8.06 44.02-34.23 40.14-34.23 40.14-35.55 47.92-35.55 47.92-34.23 45.46-34.23 36.72 0 35.23 0 25.93-29.64 24.76-33.18 24.61-33.18 23.49-29.64 14.11 0ZM76.17 0L50.56 0 50.56-1.32 54.54-1.32 54.54-34.23 50.56-34.23 50.56-35.55 75.44-35.55 75.44-28.39 74.12-28.39 74.12-34.23 55.86-34.23 55.86-19.19 71.24-19.19 71.24-17.87 55.86-17.87 55.86-1.32 74.85-1.32 74.85-7.15 76.17-7.15 76.17 0ZM88.72 0L81.17 0 81.17-1.32 83.78-1.32 96.58-35.55 98.19-35.55 111.01-1.32 113.62-1.32 113.62 0 106.07 0 106.07-1.32 109.57-1.32 106.07-10.62 88.69-10.62 85.22-1.32 88.72-1.32 88.72 0ZM96.65-31.96L89.18-11.94 105.59-11.94 98.14-31.96 97.46-33.96 97.31-33.96 96.65-31.96ZM131.56 0L122.28 0 122.28-1.32 126.26-1.32 126.26-34.23 114.64-34.23 114.64-28.39 113.32-28.39 113.32-35.55 140.52-35.55 140.52-28.39 139.2-28.39 139.2-34.23 127.58-34.23 127.58-1.32 131.56-1.32 131.56 0ZM153.55 0L144.28 0 144.28-1.32 148.26-1.32 148.26-34.23 144.28-34.23 144.28-35.55 153.55-35.55 153.55-34.23 149.57-34.23 149.57-18.29 172.28-18.29 172.28-34.23 168.3-34.23 168.3-35.55 172.28-35.55 173.6-35.55 177.58-35.55 177.58-34.23 173.6-34.23 173.6-1.32 177.58-1.32 177.58 0 168.3 0 168.3-1.32 172.28-1.32 172.28-16.97 149.57-16.97 149.57-1.32 153.55-1.32 153.55 0ZM206.65 0L181.04 0 181.04-1.32 185.02-1.32 185.02-34.23 181.04-34.23 181.04-35.55 205.92-35.55 205.92-28.39 204.6-28.39 204.6-34.23 186.34-34.23 186.34-19.19 201.72-19.19 201.72-17.87 186.34-17.87 186.34-1.32 205.33-1.32 205.33-7.15 206.65-7.15 206.65 0ZM221.32 0.02L212.05 0.02 212.05-1.29 216.03-1.29 216.03-34.2 212.05-34.2 212.05-35.52 226.33-35.52Q230.09-35.52 232.69-34.44 235.29-33.35 236.64-31.24 238-29.13 238-26L238-26Q238-23.02 236.52-20.94 235.04-18.85 232.39-17.76 229.75-16.67 226.23-16.67L226.23-16.67 217.34-16.67 217.34-1.29 221.32-1.29 221.32 0.02ZM240.49 0.02L236.36 0.02 228.92-17.53 230.23-17.53 237.24-1.29 240.49-1.29 240.49 0.02ZM217.34-34.2L217.34-17.99 226.21-17.99Q231.6-17.99 234.14-20.29 236.68-22.58 236.68-26L236.68-26Q236.68-29.98 234.08-32.09 231.48-34.2 226.33-34.2L226.33-34.2 217.34-34.2ZM261.85 0L252.57 0 252.57-1.32 256.55-1.32 256.55-34.23 244.93-34.23 244.93-28.39 243.61-28.39 243.61-35.55 270.81-35.55 270.81-28.39 269.49-28.39 269.49-34.23 257.87-34.23 257.87-1.32 261.85-1.32 261.85 0ZM283.84 0L274.56 0 274.56-1.32 278.54-1.32 278.54-34.23 274.56-34.23 274.56-35.55 283.84-35.55 283.84-34.23 279.86-34.23 279.86-1.32 283.84-1.32 283.84 0ZM296.58 0L287.31 0 287.31-1.32 291.29-1.32 291.29-34.23 287.31-34.23 287.31-35.55 291.29-35.55 293.17-35.55 307.72-2.1 307.86-2.1 322.46-35.55 328.37-35.55 328.37-34.23 324.39-34.23 324.39-1.32 328.37-1.32 328.37 0 319.09 0 319.09-1.32 323.07-1.32 323.07-20.63 323.07-33.23 322.93-33.28 308.33 0 307.28 0 292.75-33.11 292.6-33.06 292.6-21.29 292.6-1.32 296.58-1.32 296.58 0ZM357.45 0L331.84 0 331.84-1.32 335.81-1.32 335.81-34.23 331.84-34.23 331.84-35.55 356.71-35.55 356.71-28.39 355.39-28.39 355.39-34.23 337.13-34.23 337.13-19.19 352.51-19.19 352.51-17.87 337.13-17.87 337.13-1.32 356.13-1.32 356.13-7.15 357.45-7.15 357.45 0Z" opacity="1" transform="matrix(1,0,0,1,0,0)" fill="#729343" class="undefined-text-0" data-fill-palette-color="primary" id="text-0"></path></svg></g></svg></g><g transform="matrix(1,0,0,1,64.58915021689553,39.0711980670903)"><svg viewBox="0 0 187.23769956620893 19.53439788933836" height="19.53439788933836" width="187.23769956620893"><g transform="matrix(1,0,0,1,0,0)"><svg width="187.23769956620893" viewBox="0.9000000357627869 -38.79999923706055 377.6199951171875 39.39999771118164" height="19.53439788933836" data-palette-color="#096a2e"><path d="M0.9-34.65L26.5-34.65 26.5-31.7 15.4-31.7 15.4 0 12 0 12-31.7 0.9-31.7 0.9-34.65ZM34.95-25.85L34.95 0 31.7 0 31.7-25.85 34.95-25.85ZM35.7-33.65L35.7-33.65Q35.7-32.5 35-31.83 34.3-31.15 33.3-31.15L33.3-31.15Q32.3-31.15 31.6-31.83 30.9-32.5 30.9-33.65L30.9-33.65Q30.9-34.8 31.6-35.48 32.3-36.15 33.3-36.15L33.3-36.15Q34.3-36.15 35-35.48 35.7-34.8 35.7-33.65ZM43.55 0L43.55-24.95Q45-25.35 47.32-25.85 49.65-26.35 53.35-26.35L53.35-26.35Q58.25-26.35 60.45-23.5L60.45-23.5Q60.7-23.7 61.42-24.18 62.15-24.65 63.25-25.15 64.34-25.65 65.82-26 67.3-26.35 69.09-26.35L69.09-26.35Q72.05-26.35 73.87-25.48 75.7-24.6 76.7-23.03 77.7-21.45 78.05-19.25 78.4-17.05 78.4-14.45L78.4-14.45 78.4 0 75.15 0 75.15-13.4Q75.15-15.95 74.92-17.82 74.7-19.7 74.02-20.93 73.34-22.15 72.09-22.78 70.84-23.4 68.84-23.4L68.84-23.4Q67.34-23.4 66.12-23.13 64.9-22.85 64-22.45 63.1-22.05 62.52-21.65 61.95-21.25 61.7-21.05L61.7-21.05Q62.15-19.75 62.37-18.13 62.6-16.5 62.6-14.7L62.6-14.7 62.6 0 59.35 0 59.35-13.4Q59.35-15.95 59.12-17.82 58.9-19.7 58.2-20.93 57.5-22.15 56.22-22.78 54.95-23.4 52.85-23.4L52.85-23.4Q50.5-23.4 48.87-23.15 47.25-22.9 46.8-22.7L46.8-22.7 46.8 0 43.55 0ZM85.14-12.95L85.14-12.95Q85.14-16.35 86.12-18.88 87.09-21.4 88.67-23.1 90.24-24.8 92.27-25.63 94.29-26.45 96.44-26.45L96.44-26.45Q101.19-26.45 104.02-23.35 106.84-20.25 106.84-13.8L106.84-13.8Q106.84-13.4 106.82-13 106.79-12.6 106.74-12.25L106.74-12.25 88.59-12.25Q88.74-7.5 90.94-4.95 93.14-2.4 97.94-2.4L97.94-2.4Q100.59-2.4 102.14-2.9 103.69-3.4 104.39-3.75L104.39-3.75 104.99-0.95Q104.29-0.55 102.37 0 100.44 0.55 97.84 0.55L97.84 0.55Q94.44 0.55 92.04-0.45 89.64-1.45 88.09-3.25 86.54-5.05 85.84-7.53 85.14-10 85.14-12.95ZM88.69-15L103.49-15Q103.39-19.05 101.59-21.3 99.79-23.55 96.49-23.55L96.49-23.55Q94.74-23.55 93.37-22.85 91.99-22.15 90.97-20.98 89.94-19.8 89.37-18.25 88.79-16.7 88.69-15L88.69-15ZM122.09-34.65L147.69-34.65 147.69-31.7 136.59-31.7 136.59 0 133.19 0 133.19-31.7 122.09-31.7 122.09-34.65ZM172.74-12.9L172.74-12.9Q172.74-9.85 171.86-7.35 170.99-4.85 169.41-3.1 167.84-1.35 165.69-0.38 163.54 0.6 160.94 0.6L160.94 0.6Q158.34 0.6 156.19-0.38 154.04-1.35 152.46-3.1 150.89-4.85 150.01-7.35 149.14-9.85 149.14-12.9L149.14-12.9Q149.14-15.95 150.01-18.45 150.89-20.95 152.46-22.73 154.04-24.5 156.19-25.48 158.34-26.45 160.94-26.45L160.94-26.45Q163.54-26.45 165.69-25.48 167.84-24.5 169.41-22.73 170.99-20.95 171.86-18.45 172.74-15.95 172.74-12.9ZM169.29-12.9L169.29-12.9Q169.29-17.75 167.04-20.63 164.79-23.5 160.94-23.5L160.94-23.5Q157.09-23.5 154.84-20.63 152.59-17.75 152.59-12.9L152.59-12.9Q152.59-8.05 154.84-5.2 157.09-2.35 160.94-2.35L160.94-2.35Q164.79-2.35 167.04-5.2 169.29-8.05 169.29-12.9ZM208.48-30.4L211.43-30.4Q213.83-22.35 216.26-15.83 218.68-9.3 220.98-3.85L220.98-3.85Q222.73-9.75 224.46-17.75 226.18-25.75 227.78-34.65L227.78-34.65 231.13-34.65Q230.23-29.3 229.31-24.63 228.38-19.95 227.38-15.73 226.38-11.5 225.28-7.63 224.18-3.75 222.88 0L222.88 0 219.23 0Q218.03-2.85 216.86-5.7 215.68-8.55 214.53-11.58 213.38-14.6 212.23-17.9 211.08-21.2 209.88-24.9L209.88-24.9Q208.68-21.2 207.51-17.9 206.33-14.6 205.18-11.58 204.03-8.55 202.86-5.7 201.68-2.85 200.48 0L200.48 0 196.88 0Q195.53-3.75 194.41-7.63 193.28-11.5 192.31-15.73 191.33-19.95 190.46-24.63 189.58-29.3 188.68-34.65L188.68-34.65 192.18-34.65Q192.93-30.25 193.73-26.03 194.53-21.8 195.41-17.85 196.28-13.9 197.21-10.38 198.13-6.85 199.03-3.85L199.03-3.85Q201.18-9.4 203.63-15.88 206.08-22.35 208.48-30.4L208.48-30.4ZM235.13-12.95L235.13-12.95Q235.13-16.35 236.1-18.88 237.08-21.4 238.65-23.1 240.23-24.8 242.25-25.63 244.28-26.45 246.43-26.45L246.43-26.45Q251.18-26.45 254-23.35 256.83-20.25 256.83-13.8L256.83-13.8Q256.83-13.4 256.8-13 256.78-12.6 256.73-12.25L256.73-12.25 238.58-12.25Q238.73-7.5 240.93-4.95 243.13-2.4 247.93-2.4L247.93-2.4Q250.58-2.4 252.13-2.9 253.68-3.4 254.38-3.75L254.38-3.75 254.98-0.95Q254.28-0.55 252.35 0 250.43 0.55 247.83 0.55L247.83 0.55Q244.43 0.55 242.03-0.45 239.63-1.45 238.08-3.25 236.53-5.05 235.83-7.53 235.13-10 235.13-12.95ZM238.68-15L253.48-15Q253.38-19.05 251.58-21.3 249.78-23.55 246.48-23.55L246.48-23.55Q244.73-23.55 243.35-22.85 241.98-22.15 240.95-20.98 239.93-19.8 239.35-18.25 238.78-16.7 238.68-15L238.68-15ZM272.23-2.35L272.23-2.35Q274.13-2.35 275.55-2.48 276.98-2.6 277.98-2.8L277.98-2.8 277.98-11.9Q277.43-12.15 276.23-12.43 275.03-12.7 272.93-12.7L272.93-12.7Q271.73-12.7 270.43-12.53 269.13-12.35 268.03-11.78 266.93-11.2 266.23-10.2 265.53-9.2 265.53-7.55L265.53-7.55Q265.53-6.1 266-5.1 266.48-4.1 267.35-3.5 268.23-2.9 269.45-2.63 270.68-2.35 272.23-2.35ZM271.93-26.45L271.93-26.45Q274.48-26.45 276.25-25.73 278.03-25 279.13-23.73 280.23-22.45 280.73-20.7 281.23-18.95 281.23-16.9L281.23-16.9 281.23-0.6Q280.73-0.45 279.78-0.28 278.83-0.1 277.58 0.1 276.33 0.3 274.8 0.43 273.28 0.55 271.68 0.55L271.68 0.55Q269.63 0.55 267.9 0.1 266.18-0.35 264.9-1.33 263.63-2.3 262.9-3.83 262.18-5.35 262.18-7.55L262.18-7.55Q262.18-9.65 262.98-11.15 263.78-12.65 265.23-13.63 266.68-14.6 268.68-15.05 270.68-15.5 273.03-15.5L273.03-15.5Q273.73-15.5 274.5-15.43 275.28-15.35 276-15.23 276.73-15.1 277.25-14.98 277.78-14.85 277.98-14.75L277.98-14.75 277.98-16.35Q277.98-17.7 277.78-18.98 277.58-20.25 276.9-21.28 276.23-22.3 275-22.93 273.78-23.55 271.78-23.55L271.78-23.55Q268.93-23.55 267.53-23.15 266.13-22.75 265.48-22.5L265.48-22.5 265.03-25.35Q265.88-25.75 267.65-26.1 269.43-26.45 271.93-26.45ZM292.57-34.05L292.57-25.85 302.87-25.85 302.87-23.1 292.57-23.1 292.57-9.35Q292.57-7.15 292.95-5.78 293.32-4.4 294.02-3.65 294.72-2.9 295.72-2.65 296.72-2.4 297.92-2.4L297.92-2.4Q299.97-2.4 301.22-2.88 302.47-3.35 303.17-3.75L303.17-3.75 303.97-1.05Q303.27-0.6 301.52-0.03 299.77 0.55 297.72 0.55L297.72 0.55Q295.32 0.55 293.7-0.08 292.07-0.7 291.1-1.98 290.12-3.25 289.72-5.15 289.32-7.05 289.32-9.65L289.32-9.65 289.32-33.45 292.57-34.05ZM312.12 0L308.87 0 308.87-38.2 312.12-38.8 312.12-25.1Q313.72-25.7 315.37-26.03 317.02-26.35 318.67-26.35L318.67-26.35Q321.67-26.35 323.67-25.5 325.67-24.65 326.87-23.08 328.07-21.5 328.55-19.3 329.02-17.1 329.02-14.45L329.02-14.45 329.02 0 325.77 0 325.77-13.4Q325.77-16.15 325.4-18.05 325.02-19.95 324.15-21.15 323.27-22.35 321.82-22.88 320.37-23.4 318.17-23.4L318.17-23.4Q317.32-23.4 316.35-23.25 315.37-23.1 314.52-22.93 313.67-22.75 313-22.55 312.32-22.35 312.12-22.25L312.12-22.25 312.12 0ZM335.77-12.95L335.77-12.95Q335.77-16.35 336.74-18.88 337.72-21.4 339.29-23.1 340.87-24.8 342.89-25.63 344.92-26.45 347.07-26.45L347.07-26.45Q351.82-26.45 354.64-23.35 357.47-20.25 357.47-13.8L357.47-13.8Q357.47-13.4 357.44-13 357.42-12.6 357.37-12.25L357.37-12.25 339.22-12.25Q339.37-7.5 341.57-4.95 343.77-2.4 348.57-2.4L348.57-2.4Q351.22-2.4 352.77-2.9 354.32-3.4 355.02-3.75L355.02-3.75 355.62-0.95Q354.92-0.55 352.99 0 351.07 0.55 348.47 0.55L348.47 0.55Q345.07 0.55 342.67-0.45 340.27-1.45 338.72-3.25 337.17-5.05 336.47-7.53 335.77-10 335.77-12.95ZM339.32-15L354.12-15Q354.02-19.05 352.22-21.3 350.42-23.55 347.12-23.55L347.12-23.55Q345.37-23.55 343.99-22.85 342.62-22.15 341.59-20.98 340.57-19.8 339.99-18.25 339.42-16.7 339.32-15L339.32-15ZM373.52-26.35L373.52-26.35Q375.12-26.35 376.54-26.1 377.97-25.85 378.52-25.6L378.52-25.6 377.87-22.8Q377.47-23 376.24-23.23 375.02-23.45 373.02-23.45L373.02-23.45Q370.92-23.45 369.64-23.15 368.37-22.85 367.97-22.65L367.97-22.65 367.97 0 364.72 0 364.72-24.65Q365.97-25.2 368.17-25.78 370.37-26.35 373.52-26.35Z" opacity="1" transform="matrix(1,0,0,1,0,0)" fill="#096a2e" class="undefined-text-1" data-fill-palette-color="secondary" id="text-1"></path></svg></g></svg></g></svg></g></svg></g><g></g></svg></g></svg></g><g mask="url(#3f984fa9-43be-4092-a36e-6455411cdf51)"><g transform="matrix(2.995148543787762, 0, 0, 2.995148543787762, 93.86530501279367, 1.0000000000000142)"><svg xmlns="http://www.w3.org/2000/svg" xmlns:xlink="http://www.w3.org/1999/xlink" version="1.1" x="0" y="0" viewBox="15.095196723937988 9.488557815551758 69.37532043457031 81.86572265625" enable-background="new 0 0 100 100" xml:space="preserve" height="81.86572265625" width="69.37532043457031" class="icon-none" data-fill-palette-color="accent" id="none"><g transform="translate(0.000000,1088.000000) scale(0.100000,-0.100000)" fill="#096a2e" data-fill-palette-color="accent"><path d="M585 10784.4c-13.3-0.9-22-2.8-32.3-6.5-34.4-12.8-65.2-37.3-81.4-64.7-2.2-3.8-4.2-7-4.4-7-0.1 0-2.1 0.8-4.4 1.8-7.7 3.4-16.1 5.9-25.6 7.8-12.6 2.5-35 2.7-46.4 0.4-35-7.1-69.1-32.6-84.8-64-5.4-10.8-11.4-30.9-12.7-43.1l-0.6-5.2-7.4-3.7c-23.4-11.5-45-33-56-55.3-8.2-16.9-11.4-30.9-11.4-50.4 0-24.3 5.7-43 19.6-64.1 6.5-9.9 24.1-27.5 34.1-34 13.3-8.8 31.1-14.9 49.2-16.8 5-0.6 18.9-1.3 30.7-1.5l21.5-0.6 2.1-8.2c5-20 13.9-36.6 27.1-50.4l4.9-5.2-36.2-39.2c-19.9-21.5-37.3-40.9-38.7-43.1-5.7-8.6-5.3-14.4 1.3-17.3 2-0.9 5.5-1.6 7.9-1.6s25.2 2.3 50.8 5.2c40.2 4.5 47 5.1 51 4.2 9-1.8 12.5-8.3 9.2-16.9-1-2.6-32.3-45-86.6-117.5-46.8-62.3-85.9-115-86.9-116.9-1-2-1.6-3.8-1.5-4 0.9-0.9 5.8 2.5 11.9 8.2 75.7 70.2 321.1 298.7 326.9 304.5 11.4 11.1 13.8 16.5 9.1 20.2-1.8 1.4-3.5 1.8-7.9 1.8-3.2 0-29.5-4-61.6-9.6-58.6-10.1-68-11.1-70.9-8.3-1.5 1.4-1.5 1.6 0.1 4.5 2.2 4 5.8 6.7 64.2 46.9 27.7 19.1 52.4 36.2 54.8 38l4.4 3.2 57.6 0.9c79.6 1.3 87.9 2.4 114.3 15.1 13 6.3 21.4 12.1 30.5 21 17.1 16.9 26.9 35.1 32.3 59.9 1.5 7.1 1.9 11.5 1.9 24.6 0.1 17-1.2 24.7-6 37.7-13.1 34.6-41.8 62.2-77.2 73.8l-8.8 2.8 0.4 4.2c0.3 2.2 0.4 11.7 0.4 20.9 0 14.5-0.3 18.1-2 25.8-9 40.3-34 77.2-66.2 97.8-11 7.1-34 17.1-47.9 20.9C626.3 10785.1 607.6 10785.9 585 10784.4zM630.5 10764.7c14.7-3.8 38-14.3 49.7-22.6 3.5-2.5 10.8-8.8 15.9-14 15.2-15.2 26.4-33.4 33.1-53.8 6.5-19.8 8.1-34.8 5.7-55.4-1.8-15.8-1.8-16.5 1-19.6 1.9-2.2 4.3-3.2 14.3-6.1 19-5.4 31.8-12.7 45.5-25.7 13.3-12.6 21.1-24.9 26.9-42.4 3.9-11.5 5.2-21.2 4.4-32.2-1.9-27.7-11.5-49.5-29.4-66.7-8.4-8-16.2-13.3-27.4-18.5-16.2-7.6-28.1-10.1-55.6-11.6-17-0.9-165.3-1.2-165.3-0.3 0 0.3 1.6 3.7 3.7 7.6 2.6 5.1 5.6 9 10.9 14.4 7.8 7.9 13.3 11.5 25.4 16.6 10.9 4.6 16.5 7.9 22 13.1l4.7 4.4 8.6-2.4c22.2-6.3 36.7-7.8 43.1-4.6 2.2 1.2 4 3 5.3 5.6 1.8 3.4 2 4.6 1.6 11.5-0.3 5.1-1 9.5-2.3 12.7-11.7 30.8-57 54.6-120.5 63.2-16.7 2.2-63.4 2.2-80.1 0-63.5-8.6-108.5-32.2-120.6-63.2-2.6-6.5-2.9-20.7-0.6-24.9 3.1-5.7 10.1-7.7 21.4-6.3 3.9 0.4 7.1 0.7 7.3 0.5 0.3-0.2-0.8-3.9-2.2-8.2-3.4-10.1-5.2-19.9-5.9-31.1l-0.5-9-20.8 0.6c-23.9 0.7-31.4 1.5-42.5 4.4-17.3 4.6-27.4 10.5-41 24-19.5 19.5-29.4 40.9-30.4 66-1.1 27.7 8.5 51.7 29 72.3 9 9 15.4 13.8 27.7 20.3 15.9 8.4 17.5 10.3 18.8 22.9 1.9 18.6 9.5 38.7 19.4 51.5 5.5 7.2 18.3 19 26.5 24.5 20.7 13.7 40.8 19 64.1 16.9 15.6-1.5 22.9-3.4 38-10.5 10.1-4.6 13.8-5.2 16.8-2.2 1 1.1 4.7 6.7 8.1 12.4 7.7 13.1 14.1 21.1 23.9 30.2 21.1 19.5 47.8 33.3 70.3 36.2 2.9 0.4 14.3 0.8 25.2 0.9C621.1 10766.4 624.8 10766.1 630.5 10764.7zM482.3 10494c1.7-0.6 4.9-2.2 7.2-3.5l4-2.4-3.8-3.1c-7.7-6.2-16.6-15.3-22-22.5-10.2-13.5-19.1-33.8-22.6-51.6-1.7-8.4-3.2-20.7-2.4-19.9 0.3 0.3 2.2 4.9 4.5 10.3 10.2 25 24.5 45.9 43.9 64.4 8 7.6 10.1 9 20 13.9 13.7 6.8 19.7 9 30.7 11.8 22.3 5.4 44.4 2.8 55.1-6.6 4.2-3.7 5.7-7.1 5.7-13.7 0-8.5-3.4-11.2-27-22-14.6-6.5-26.9-17-35.4-30-8.1-12.6-12.1-23.1-16.9-44.6-5.1-23.5-9.7-33.8-19.4-43.6-11-11.1-22.6-15.2-44.3-15.2-14.2-0.1-19.3 0.9-28.1 5.1-26.4 12.8-44.6 51.7-40.9 87.4 1.8 17.1 6.2 29.7 15.2 43.6 11.5 17.7 36.6 37.4 53.4 42C464.8 10495.3 478.2 10495.4 482.3 10494z" fill="#096a2e" data-fill-palette-color="accent"></path><path d="M367.2 10618.2c-4.4-1-7.3-3.9-7.3-6.9 0-4.4 8-10.2 19.4-14.1 5.7-1.9 93.6-20.1 100.9-20.8 6.9-0.8 7.1 0.6 0.6 4.1-8 4.3-83.1 34.4-90.1 36C381.9 10618.6 371.8 10619.4 367.2 10618.2z" fill="#096a2e" data-fill-palette-color="accent"></path><path d="M669.4 10618.3c-8.9-1.4-16.1-4-56.4-20.3-41-16.7-45.6-18.9-45.6-20.8 0-2.1 6.1-1 56.3 9.3 47.7 9.8 56.2 12.1 63.2 17.2 4.2 3.1 5.5 5.3 5.2 8.8-0.2 2-0.9 3.2-2.8 4.3C685.9 10618.6 676.5 10619.3 669.4 10618.3z" fill="#096a2e" data-fill-palette-color="accent"></path><path d="M726.7 10347.1c-2-1.3-18.6-15.3-36.9-31.2-34.4-29.9-40.6-36.1-46-46.7-3.4-6.9-3.8-12.9-0.8-15.3 1.1-0.9 2.7-1.6 3.4-1.6 2.8 0 11.8 5.1 16.4 9.1 4.4 4 60.8 73.6 66.3 82 2.6 3.9 3.3 6.2 1.9 6.2C730.7 10349.6 728.7 10348.5 726.7 10347.1z" fill="#096a2e" data-fill-palette-color="accent"></path><path d="M349.7 10328.3c-5.9-4-69.4-59.3-73.1-63.7-10.5-12.6-14.6-22.7-11.5-28.7 1.3-2.3 6.8-2.2 12 0.4 7.5 3.9 13.9 10.8 43.1 47.4 29.4 36.9 34.5 43.6 34.5 45.7C354.7 10331.2 353.7 10331 349.7 10328.3z" fill="#096a2e" data-fill-palette-color="accent"></path><path d="M235.7 10271.1c-6.3-4.6-64.3-55.1-70.1-61.1-18.6-19.4-19.8-39.3-1.8-30.3 7.5 3.9 14.5 11.5 44.3 48.9 26.5 33.2 33.8 42.8 33.8 44.6C241.9 10274.6 239.5 10273.8 235.7 10271.1z" fill="#096a2e" data-fill-palette-color="accent"></path><path d="M744.2 10264.7c-8.1-6.1-67.2-57.9-71.1-62.2-14.2-15.8-17.8-31.1-7.5-31.1 1.9 0 4.9 0.8 6.7 1.6 7.9 4.1 13.5 10.2 43.5 47.8 16.7 20.9 31.3 39.5 32.6 41.4C752.8 10268.6 750.9 10269.7 744.2 10264.7z" fill="#096a2e" data-fill-palette-color="accent"></path><path d="M626.1 10221.6c-1.9-1.4-18.5-15.5-36.9-31.4-34.6-30-40.6-36.2-45.9-46.7-2.7-5.3-3.4-11.2-1.7-14.4 1.3-2.3 6.9-2.2 11.8 0.3 7.2 3.6 14.5 11.6 43.3 47.6 30.4 38.1 34.4 43.4 34.4 45.5C631.1 10224.5 630.1 10224.3 626.1 10221.6z" fill="#096a2e" data-fill-palette-color="accent"></path><path d="M240.4 10163.2c-11.7-9-67.3-58.2-71.9-63.6-12.1-14.4-14.9-29-5.6-28.9 1.5 0 4.3 0.8 6.2 1.6 7.7 3.5 13.4 9.7 42.9 46.4 16.1 20.1 30.8 38.7 32.6 41.4C250.3 10168.1 248.5 10169.4 240.4 10163.2z" fill="#096a2e" data-fill-palette-color="accent"></path><path d="M342.7 10145.8c-7.6-5.9-66.4-57.4-70.8-62-18-19-19-38.8-1.5-30 7.6 3.9 15.4 12.4 44.7 49.1 26.7 33.5 33.7 42.7 33.7 44.5C348.7 10148.9 345.6 10148.1 342.7 10145.8z" fill="#096a2e" data-fill-palette-color="accent"></path><path d="M638.8 10133.6c-6.8-4.4-69.9-59.8-74.7-65.6-5.7-6.9-10.3-15.8-11-20.8-0.5-3.4-0.3-4.2 1.6-6.1 1.2-1.2 3-2.2 3.9-2.2 2.8 0 11.5 4.9 16.4 9.1 4.2 3.7 57.9 70.1 65.8 81.2 3.1 4.5 4 7 2.6 7C643 10136.1 640.9 10135 638.8 10133.6z" fill="#096a2e" data-fill-palette-color="accent"></path><path d="M516.8 10100.4c-11.7-9-67.3-58.2-71.9-63.6-12.1-14.4-14.9-29-5.6-28.9 1.5 0 4.3 0.8 6.2 1.6 7.7 3.5 13.3 9.6 42.7 46.3 16.2 20.1 30.8 38.7 32.7 41.4C526.7 10105.3 524.9 10106.6 516.8 10100.4z" fill="#096a2e" data-fill-palette-color="accent"></path></g></svg></g></g></svg></g><defs><mask id="d1d9977c-8e83-42f9-bac0-d2415d25ed3c"><rect width="640" height="400" fill="white"></rect><rect width="348.05760000000004" height="66.94024050845785" fill="black" x="145.97119999999998" y="166.52987974577107" id="transform-me" transform="matrix(1,0,0,1,-122.24000000000001,-76.4)"></rect></mask><mask id="3764dab3-d7a0-4ec3-8268-e5537e8a1b6a"><rect width="640" height="400" fill="white"></rect><rect width="348.05760000000004" height="69.07935960311254" fill="black" x="145.97119999999998" y="165.46032019844372" id="transform-me" transform="matrix(1,0,0,1,-122.24000000000001,-76.4)"></rect></mask><mask id="c30a5e70-152a-480d-9672-6ca6c246dc23"><rect width="640" height="400" fill="white"></rect><rect width="348.05760000000004" height="73.52987594388317" fill="black" x="145.97119999999998" y="163.23506202805842" id="transform-me" transform="matrix(1,0,0,1,-122.24000000000001,-76.4)"></rect></mask><mask id="788bfdc9-9783-49b9-b8ef-e1b1ad5572b2"><rect width="640" height="400" fill="white"></rect><rect width="348.05760000000004" height="73.52987594388317" fill="black" x="145.97119999999998" y="163.23506202805842" id="transform-me" transform="matrix(1,0,0,1,-122.24000000000001,-76.4)"></rect></mask><mask id="bf08e81d-b79a-4931-b159-bad8f22bdfc8"><rect width="640" height="400" fill="white"></rect><rect width="348.05760000000004" height="73.52987594388317" fill="black" x="145.97119999999998" y="163.23506202805842" id="transform-me" transform="matrix(1,0,0,1,-122.24000000000001,-76.4)"></rect></mask><mask id="e1e5b385-04c6-4341-a32c-bcb9e5b2e92f"><rect width="640" height="400" fill="white"></rect><rect width="348.05760000000004" height="73.52987594388317" fill="black" x="145.97119999999998" y="163.23506202805842" id="transform-me" transform="matrix(1,0,0,1,-122.24000000000001,-76.4)"></rect></mask><mask id="7259521f-10a8-4d8e-b665-5feef837e09c"><rect width="640" height="400" fill="white"></rect><rect width="348.05760000000004" height="73.52987594388317" fill="black" x="145.97119999999998" y="163.23506202805842" id="transform-me" transform="matrix(1,0,0,1,-122.24000000000001,-76.4)"></rect></mask><mask id="98ba6cb3-823a-400b-abb3-4449b2a493e3"><rect width="640" height="400" fill="white"></rect><rect width="348.05760000000004" height="70.76443768258419" fill="black" x="145.97119999999998" y="164.6177811587079" id="transform-me" transform="matrix(1,0,0,1,-122.24000000000001,-76.4)"></rect></mask><mask id="8524ce80-d86c-41d9-8770-c23e26c414e5"><rect width="640" height="400" fill="white"></rect><rect width="348.05760000000004" height="73.52987594388317" fill="black" x="145.97119999999998" y="163.23506202805842" id="transform-me" transform="matrix(1,0,0,1,-122.24000000000001,-76.4)"></rect></mask><mask id="f54c54d6-e286-454b-9941-0405f667bc92"><rect width="640" height="400" fill="white"></rect><rect width="348.05760000000004" height="73.52987594388317" fill="black" x="145.97119999999998" y="163.23506202805842" id="transform-me" transform="matrix(1,0,0,1,-122.24000000000001,-76.4)"></rect></mask><mask id="dd30f2b1-13ae-4fb4-bc74-b1bed5d3ac77"><rect width="640" height="400" fill="white"></rect><rect width="348.05760000000004" height="73.52987594388317" fill="black" x="145.97119999999998" y="163.23506202805842" id="transform-me" transform="matrix(1,0,0,1,-122.24000000000001,-76.4)"></rect></mask><mask id="568a77dc-9f09-4bb0-bad9-dd4db0dfd4f3"><rect width="640" height="400" fill="white"></rect><rect width="348.05760000000004" height="73.3765257014136" fill="black" x="145.97119999999998" y="163.3117371492932" id="transform-me" transform="matrix(1,0,0,1,-122.24000000000001,-76.4)"></rect></mask><mask id="61aaf59a-7965-47e7-8845-e4c1f6464572"><rect width="640" height="400" fill="white"></rect><rect width="348.05760000000004" height="73.52987594388317" fill="black" x="145.97119999999998" y="163.23506202805842" id="transform-me" transform="matrix(1,0,0,1,-122.24000000000001,-76.4)"></rect></mask><mask id="8c524481-969d-4a84-b0fe-5c7ab5aed741"><rect width="640" height="400" fill="white"></rect><rect width="348.05760000000004" height="73.52987594388317" fill="black" x="145.97119999999998" y="163.23506202805842" id="transform-me" transform="matrix(1,0,0,1,-122.24000000000001,-76.4)"></rect></mask><mask id="42fc43b8-2980-494c-8608-49bb1aba55eb"><rect width="640" height="400" fill="white"></rect><rect width="348.05760000000004" height="73.3765257014136" fill="black" x="145.97119999999998" y="163.3117371492932" id="transform-me" transform="matrix(1,0,0,1,-122.24000000000001,-76.4)"></rect></mask><mask id="f34feae3-88f4-4ce4-8e27-6f39dc203612"><rect width="640" height="400" fill="white"></rect><rect width="348.05760000000004" height="73.52987594388317" fill="black" x="145.97119999999998" y="163.23506202805842" id="transform-me" transform="matrix(1,0,0,1,-122.24000000000001,-76.4)"></rect></mask><mask id="06496681-1782-4233-ad99-b899f780f89a"><rect width="640" height="400" fill="white"></rect><rect width="348.05760000000004" height="73.52987594388317" fill="black" x="145.97119999999998" y="163.23506202805842" id="transform-me" transform="matrix(1,0,0,1,-122.24000000000001,-76.4)"></rect></mask><mask id="09cc61a6-f408-4dca-8bcb-08f4bcc45162"><rect width="640" height="400" fill="white"></rect><rect width="348.05760000000004" height="73.52987594388317" fill="black" x="145.97119999999998" y="163.23506202805842" id="transform-me" transform="matrix(1,0,0,1,-122.24000000000001,-76.4)"></rect></mask><mask id="96532951-6d03-4b4c-aa18-f3983ce4140f"><rect width="640" height="400" fill="white"></rect><rect width="348.05760000000004" height="73.52987594388317" fill="black" x="145.97119999999998" y="163.23506202805842" id="transform-me" transform="matrix(1,0,0,1,-122.24000000000001,-76.4)"></rect></mask><mask id="3f984fa9-43be-4092-a36e-6455411cdf51"><rect width="640" height="400" fill="white"></rect><rect width="348.05760000000004" height="73.52987594388317" fill="black" x="145.97119999999998" y="163.23506202805842" id="transform-me" transform="matrix(1,0,0,1,-122.24000000000001,-76.4)"></rect></mask></defs></svg><rect width="395.52" height="247.2" fill="none" stroke="none" visibility="hidden"></rect></g></svg></g></svg>